<svg xmlns="http://www.w3.org/2000/svg" width="28.464" height="45.871" viewBox="0 0 28.464 45.871">
  <g id="ICON" transform="translate(-934.964 -173.357)">
    <path id="Path_13" data-name="Path 13" d="M953.563,280.716l-3.1,15.552h23.551l-3.1-15.552Z" transform="translate(-10.584 -77.038)" fill="#302c27"/>
    <path id="Path_14" data-name="Path 14" d="M953.634,212.769l-.116-.287a2.326,2.326,0,0,0-2.156-1.453h-5.476l-.983,3.965h.014l-2.253,8.8h-5.142a2.326,2.326,0,0,0-2.271,1.821L932.8,241.255h3.726l2.652-12.808h5.3a2.327,2.327,0,0,0,2.254-1.75l1.623-4.726,1.844-5.308.28-.806,4.62,12.589h2.463Z" transform="translate(2.167 -26.731)" fill="#302c27"/>
    <path id="Path_11" data-name="Path 11" d="M981.558,180.381a4.348,4.348,0,0,0,4.245-3.805,4.237,4.237,0,0,0,.053-.586,4.346,4.346,0,1,0-4.3,4.391Z" transform="translate(-29.863 1.668)" fill="#302c27"/>
  </g>
</svg>
