<svg xmlns="http://www.w3.org/2000/svg" width="91.469" height="133.057" viewBox="0 0 91.469 133.057">
  <g id="icon_Seguridad" transform="translate(-233.261 -2019.678)">
    <g id="Group_168" data-name="Group 168">
      <g id="Group_167" data-name="Group 167">
        <path id="Path_138" data-name="Path 138" d="M288.164,2041.557a10.942,10.942,0,0,0,10.684-9.579,10.544,10.544,0,0,0,.134-1.475,10.939,10.939,0,1,0-10.818,11.054Z" fill="#302c27"/>
      </g>
    </g>
    <g id="Group_170" data-name="Group 170">
      <g id="Group_169" data-name="Group 169">
        <path id="Path_139" data-name="Path 139" d="M302.96,2075.739l18.974,8,2.8-6.626-15.239-8.452-12.857-20.44h-18.4l-18.917,12.406L255.7,2083.41l7.552,1.65,3.314-16.987,10.456-5.848-1.921,18.539a106.572,106.572,0,0,1-12.882,18.721c-4.064,4.567-16.929,17.264-16.929,17.264,5.394,7.623,28.3,7.1,41.145,4.138l6.853,31.848H308.7l-14.624-71.971,1.354-15.28Z" fill="#302c27"/>
        <path id="Path_140" data-name="Path 140" d="M251.211,2127.045l-17.95,25.69h16.8L266.01,2130.3S257.4,2131.212,251.211,2127.045Z" fill="#302c27"/>
      </g>
    </g>
  </g>
</svg>
