<svg xmlns="http://www.w3.org/2000/svg" width="73.757" height="118.866" viewBox="0 0 73.757 118.866">
  <g id="icon_Confort" transform="translate(-1052.058 -2026.773)">
    <g id="Group_176" data-name="Group 176">
      <g id="Group_175" data-name="Group 175">
        <g id="Group_174" data-name="Group 174">
          <g id="Group_173" data-name="Group 173">
            <g id="Group_172" data-name="Group 172">
              <path id="Path_141" data-name="Path 141" d="M1095.415,2049.3a11.266,11.266,0,0,0,11-9.861,11.015,11.015,0,0,0,.137-1.518,11.261,11.261,0,1,0-11.137,11.379Z" fill="#302c27"/>
            </g>
          </g>
        </g>
      </g>
      <path id="Path_142" data-name="Path 142" d="M1072.826,2105.341l-8.039,40.3h61.028l-8.039-40.3Z" fill="#302c27"/>
    </g>
    <path id="Path_143" data-name="Path 143" d="M1106.055,2059.631l-.3-.743a6.028,6.028,0,0,0-5.588-3.765h-14.189l-2.547,10.275.037,0-5.838,22.8H1064.3a6.029,6.029,0,0,0-5.885,4.718l-6.361,40.53h9.654l6.874-33.19h13.723a6.028,6.028,0,0,0,5.84-4.533l4.206-12.247,4.778-13.754.726-2.09,11.972,32.621h6.381Z" fill="#302c27"/>
  </g>
</svg>
