<svg xmlns="http://www.w3.org/2000/svg" width="665.654" height="164.948" viewBox="0 0 665.654 164.948">
  <g id="logo_Pasele" transform="translate(-604.175 -173.357)">
    <path id="P" d="M629.143,230.613h32.04c14.434,0,24.393,2.886,31.753,10.247,5.2,5.2,7.794,11.98,7.794,20.783,0,10.536-3.753,19.2-10.248,25.691-8.947,8.949-22.8,13.711-38.823,13.711h-19.2l-8.227,30.6H602.008Zm31.175,20.062H645.885l-8.227,30.886h15.155c8.8,0,15.732-2.309,20.062-6.639a15.448,15.448,0,0,0,4.617-11.4,11.537,11.537,0,0,0-3.319-8.37C671.143,252.119,666.957,250.675,660.318,250.675Z" transform="translate(2.167 1.668)" fill="#302c27"/>
    <path id="A" d="M767.122,229.891h21.36L804.5,331.643H781.7l-3.176-22.661H735.8l-15.3,22.661H696.546Zm8.8,59.464-4.618-33.34-22.227,33.34Z" transform="translate(2.167 1.668)" fill="#302c27"/>
    <path id="S" d="M826.733,314.467l16.742-14.143c7.938,8.658,16.742,13.278,28.289,13.278,8.948,0,15.442-4.186,15.442-10.535,0-4.908-3.608-7.795-17.175-13.278-13.133-5.341-24.824-12.414-24.824-27.279a30.371,30.371,0,0,1,8.948-21.8c7.361-7.361,18.763-11.546,31.175-11.546,17.32,0,29.3,5.919,37.814,15.011l-15.3,15.3c-7.65-7.072-14.434-10.825-24.248-10.825-9.381,0-14.721,5.2-14.721,10.247,0,5.342,4.041,7.651,17.752,13.279,13.856,5.629,24.248,12.558,24.248,27.279a30.415,30.415,0,0,1-9.094,22.083c-7.649,7.65-19.05,11.545-31.029,11.545C851.269,333.086,836.259,326.736,826.733,314.467Z" transform="translate(2.167 1.668)" fill="#302c27"/>
    <path id="L" d="M1087.394,230.613h22.227l-21.649,80.824h50.371l-5.485,20.206h-72.6Z" transform="translate(2.167 1.668)" fill="#302c27"/>
    <path id="E" d="M1192.177,230.613h75.485l-5.34,19.773h-53.4l-5.484,20.639h46.906L1245,290.509h-46.907l-5.772,21.362h54.268l-5.341,19.772h-76.205Z" transform="translate(2.167 1.668)" fill="#302c27"/>
    <path id="accento" d="M803.025,189.621,759.789,209.7l3.12,9.555,46.054-11.433Z" transform="translate(2.167 1.668)" fill="#302c27"/>
    <g id="ICON">
      <path id="Path_13" data-name="Path 13" d="M961.616,280.716,950.46,336.637h84.687l-11.155-55.922Z" transform="translate(2.167 1.668)" fill="#302c27"/>
      <path id="Path_14" data-name="Path 14" d="M1007.727,217.285l-.418-1.031a8.365,8.365,0,0,0-7.754-5.225h-19.69l-3.534,14.259.051,0-8.1,31.643H949.79a8.364,8.364,0,0,0-8.166,6.547L932.8,319.717h13.4l9.537-46.056h19.044a8.368,8.368,0,0,0,8.1-6.291l5.835-16.995,6.631-19.086,1.008-2.9,16.613,45.268h8.855Z" transform="translate(2.167 1.668)" fill="#302c27"/>
      <path id="Path_11" data-name="Path 11" d="M992.962,202.943a15.633,15.633,0,0,0,15.264-13.684,15.219,15.219,0,0,0,.191-2.106,15.626,15.626,0,1,0-15.455,15.79Z" transform="translate(2.167 1.668)" fill="#302c27"/>
    </g>
  </g>
</svg>
