<svg xmlns="http://www.w3.org/2000/svg" width="658.6" height="163.2" viewBox="0 0 658.6 163.2">
  <g id="logo_Pasele" transform="translate(-604.175 -173.357)">
    <path id="P" d="M628.856,230.613h31.7c14.281,0,24.135,2.855,31.417,10.138,5.141,5.142,7.711,11.853,7.711,20.563,0,10.424-3.713,18.993-10.139,25.419-8.852,8.854-22.562,13.566-38.412,13.566H632.139L624,330.572H602.008ZM659.7,250.462H645.42l-8.14,30.559h14.994c8.711,0,15.565-2.285,19.849-6.569a15.284,15.284,0,0,0,4.568-11.282,11.414,11.414,0,0,0-3.284-8.281C670.41,251.891,666.269,250.462,659.7,250.462Z" transform="translate(2.167 1.044)" fill="#ede7e4"/>
    <path id="A" d="M766.374,229.891h21.134l15.851,100.674H780.8l-3.142-22.421H735.386l-15.137,22.421h-23.7Zm8.711,58.834-4.569-32.987-21.992,32.987Z" transform="translate(1.166 1.051)" fill="#ede7e4"/>
    <path id="S" d="M826.733,313.563,843.3,299.57c7.854,8.566,16.565,13.137,27.989,13.137,8.853,0,15.278-4.142,15.278-10.423,0-4.856-3.57-7.712-16.993-13.137-12.994-5.284-24.561-12.282-24.561-26.99a30.05,30.05,0,0,1,8.853-21.564c7.283-7.283,18.564-11.424,30.845-11.424,17.136,0,28.989,5.856,37.413,14.852l-15.136,15.136c-7.569-7-14.281-10.71-23.991-10.71-9.281,0-14.565,5.14-14.565,10.138,0,5.285,4,7.57,17.564,13.138,13.709,5.569,23.991,12.425,23.991,26.99a30.093,30.093,0,0,1-9,21.849c-7.568,7.569-18.848,11.423-30.7,11.423C851.009,331.985,836.158,325.7,826.733,313.563Z" transform="translate(-0.214 1.059)" fill="#ede7e4"/>
    <path id="L" d="M1087.107,230.613H1109.1l-21.419,79.968h49.837l-5.427,19.992H1060.26Z" transform="translate(-2.689 1.044)" fill="#ede7e4"/>
    <path id="E" d="M1191.89,230.613h74.685l-5.283,19.563h-52.836l-5.426,20.42h46.409l-5.284,19.278h-46.41l-5.711,21.136h53.693l-5.284,19.563h-75.4Z" transform="translate(-3.799 1.044)" fill="#ede7e4"/>
    <path id="accento" d="M802.566,189.621l-42.777,19.862,3.087,9.454,45.566-11.312Z" transform="translate(0.495 1.478)" fill="#ede7e4"/>
    <g id="ICON" transform="translate(931.458 173.357)">
      <path id="Path_13" data-name="Path 13" d="M961.5,280.716,950.46,336.045h83.79l-11.037-55.329Z" transform="translate(-932.983 -172.845)" fill="#ede7e4"/>
      <path id="Path_14" data-name="Path 14" d="M1006.933,217.219l-.413-1.02a8.277,8.277,0,0,0-7.672-5.17H979.366l-3.5,14.108.051,0-8.015,31.308h-18.3a8.276,8.276,0,0,0-8.079,6.478L932.8,318.565h13.256L955.488,273H974.33a8.279,8.279,0,0,0,8.019-6.224l5.773-16.815,6.561-18.884,1-2.869,16.437,44.788h8.761Z" transform="translate(-932.796 -172.106)" fill="#ede7e4"/>
      <path id="Path_11" data-name="Path 11" d="M992.795,202.612a15.468,15.468,0,0,0,15.1-13.539,15.08,15.08,0,0,0,.189-2.084,15.461,15.461,0,1,0-15.291,15.623Z" transform="translate(-933.266 -171.689)" fill="#ede7e4"/>
    </g>
  </g>
</svg>
